<svg width="1080" height="1080" viewBox="0 0 1080 1080" fill="none" xmlns="http://www.w3.org/2000/svg">
<rect width="1080" height="1080" fill="#FEDC28"/>
<path d="M663.808 706L540 626.458L416.192 706L453.542 563.517L339.763 470.833L486.742 461.842L540 325.583L593.258 461.842L740.238 470.833L626.458 563.517M816.667 540C816.667 521.656 823.954 504.063 836.925 491.092C849.896 478.121 867.489 470.833 885.833 470.833V332.5C885.833 314.156 878.546 296.563 865.575 283.592C852.604 270.621 835.011 263.333 816.667 263.333H263.333C244.989 263.333 227.396 270.621 214.425 283.592C201.454 296.563 194.167 314.156 194.167 332.5V470.833C212.511 470.833 230.104 478.121 243.075 491.092C256.046 504.063 263.333 521.656 263.333 540C263.333 558.344 256.046 575.937 243.075 588.908C230.104 601.879 212.511 609.167 194.167 609.167V747.5C194.167 765.844 201.454 783.437 214.425 796.408C227.396 809.379 244.989 816.667 263.333 816.667H816.667C835.011 816.667 852.604 809.379 865.575 796.408C878.546 783.437 885.833 765.844 885.833 747.5V609.167C867.489 609.167 849.896 601.879 836.925 588.908C823.954 575.937 816.667 558.344 816.667 540Z" fill="black"/>
</svg>
